<svg width="328" height="348" viewBox="0 0 328 348" fill="none" xmlns="http://www.w3.org/2000/svg">
<path d="M31.93 173.527L33.299 173.662C34.253 175.672 35.23 177.639 36.236 179.576C32.656 181.533 30.673 185.616 31.471 189.722C32.358 194.284 36.397 197.57 41.058 197.407L47.037 197.243C47.86 198.372 48.726 199.477 49.665 200.511L54.841 206.544C54.976 206.7 55.115 206.854 55.26 207.001C56.955 208.733 58.659 210.396 60.307 212.003L60.971 212.65C62.766 214.481 64.616 216.017 66.251 217.376L67.354 218.296C67.381 218.318 67.409 218.341 67.435 218.363L68.498 219.244C70.188 220.651 71.936 222.104 73.922 223.456L79.711 227.554C79.877 227.671 80.045 227.783 80.219 227.89L86.036 231.477C86.104 231.52 86.174 231.562 86.244 231.601C93.369 235.752 100.321 239.206 106.912 241.874C107.281 242.056 107.794 242.299 108.435 242.581C108.465 242.593 108.494 242.606 108.524 242.618L108.692 242.69C109.682 243.114 111.291 243.802 113.29 244.356C113.768 244.531 114.232 244.698 114.696 244.863L114.878 244.928C115.486 245.143 116.076 245.348 116.578 245.52L116.762 245.583V245.584C117.289 245.764 117.803 245.938 118.305 246.104L121.974 247.277C122.831 247.543 123.647 247.792 124.381 248.013C124.451 248.034 124.523 248.055 124.594 248.074L125.672 248.38C125.683 248.383 125.693 248.387 125.704 248.39C128.133 279.156 130.08 301.315 130.099 301.517C130.125 301.802 130.162 302.086 130.214 302.368C131.852 311.379 141.306 328.56 165.376 329.094C165.885 329.105 166.399 329.114 166.847 329.114C166.925 329.114 167.001 329.114 167.076 329.113C180.723 329.113 191.245 325.411 198.349 318.109C205.361 310.902 206.437 302.832 206.593 300.05C206.794 297.835 209.363 269.529 212.296 233.778C215.837 232.024 217.983 228.199 217.507 224.156C217.184 221.422 215.717 219.062 213.611 217.55C214.119 211.193 214.607 204.975 215.071 198.956C217.452 196.659 218.532 193.207 217.697 189.834C217.376 188.537 216.798 187.361 216.028 186.353C216.212 183.894 216.393 181.433 216.573 178.978C216.728 178.915 216.886 178.852 217.047 178.787C219.443 177.832 224.354 175.874 230.09 172.958C235.873 170.131 242.088 166.419 248.579 161.912C255.575 157.037 262.431 151.04 268.959 144.088C269.055 143.987 269.148 143.883 269.238 143.777L271.32 141.355L276.77 141.505C281.44 141.656 285.471 138.383 286.357 133.821C287.024 130.388 285.749 126.971 283.219 124.799C284.525 122.489 285.864 120.109 286.864 117.824C286.925 117.698 286.985 117.571 287.046 117.443C291.109 116.538 294.167 113.052 294.452 108.806C294.593 106.705 294.036 104.698 292.963 103.031C294.116 99.77 295.132 96.614 296.138 93.436C296.151 93.396 296.162 93.357 296.174 93.317C298.798 84.633 300.602 77.196 301.812 71.486L302.483 71.291C306.947 70 309.821 65.668 309.277 61.054C308.914 57.971 307.095 55.366 304.546 53.911C304.723 51.046 304.711 48.221 304.514 45.48C308.392 43.477 310.434 39.053 309.371 34.759C308.287 30.381 304.308 27.398 299.814 27.547C295.004 18.026 286.864 11.747 276.318 9.58501C275.267 9.36801 274.168 9.19101 273.041 9.05701C272.614 8.98701 272.182 8.94501 271.749 8.93301C271.389 8.88801 271.023 8.86301 270.655 8.85901C270.398 8.84301 270.137 8.83001 269.872 8.81801C269.304 8.73501 268.725 8.70001 268.146 8.71701L268.144 8.68301C267.91 8.69001 267.47 8.71101 266.852 8.77901C257.742 8.95001 249.43 11.687 243.612 16.316C240.058 15.654 236.322 17.072 234.132 20.142C231.944 23.212 231.819 27.203 233.607 30.349C231.759 34.542 230.302 39.288 229.254 44.537C228.514 48.261 227.818 53.231 227.015 58.985C226.369 63.616 225.634 68.864 224.753 74.311C224.724 74.505 224.693 74.7 224.663 74.894C223.583 76.798 223.186 79.036 223.565 81.211C223.213 83.044 222.847 84.808 222.473 86.465C222.183 86.399 221.887 86.347 221.587 86.309C221.6 84.399 221.594 82.645 221.57 81.058C221.476 74.873 220.971 68.921 220.067 63.312L222.127 59.731C224.443 55.703 223.506 50.59 219.91 47.646C218.579 46.554 217.028 45.88 215.425 45.62C208.029 26.308 194.247 14.104 176.489 11.58C174.164 11.25 171.751 11.082 169.316 11.082C150.871 11.082 137.704 19.413 130.569 28.073C126.473 26.275 121.644 27.587 119.024 31.262C116.327 35.046 116.763 40.225 120.053 43.505L121.818 45.263C118.231 56.139 116.989 67.554 116.608 75.783C116.595 76.059 116.583 76.342 116.571 76.629C113.594 77.963 111.42 80.784 111.017 84.189C110.532 88.315 112.776 92.214 116.448 93.918C116.641 106.754 117.331 123.801 118.508 144.798C115.689 146.184 113.65 148.926 113.261 152.211C112.738 156.647 115.372 160.823 119.542 162.288C119.854 167.305 120.188 172.517 120.545 177.901C117.337 175.041 114.096 171.622 110.883 167.706L108.219 164.088C108.122 163.958 108.058 163.873 107.954 163.747C107.861 163.621 107.626 163.216 107.484 162.975C107.456 162.926 107.427 162.877 107.397 162.829L107.269 162.618C107.23 161.395 106.954 160.164 106.421 158.991C105.725 157.46 104.664 156.192 103.382 155.255C103.367 155.214 103.352 155.172 103.337 155.129C103.271 154.934 103.197 154.741 103.118 154.551C101.039 149.57 99.109 142.959 97.354 136.632C95.33 129.099 93.663 121.985 92.192 115.709C91.115 111.114 90.185 107.147 89.338 103.982C87.723 97.949 85.669 92.503 83.206 87.708C85.999 84.421 86.24 79.615 83.698 76.048C81.063 72.352 76.193 71.048 72.079 72.892C65.155 66.774 56.835 63.753 47.672 64.101C47.031 64.125 46.385 64.168 45.802 64.222C45.335 64.263 44.867 64.315 44.419 64.373C43.982 64.404 43.548 64.467 43.118 64.559C42.522 64.655 41.926 64.766 41.329 64.89C40.663 64.953 40.002 65.082 39.357 65.278L39.351 65.257C39.05 65.347 38.605 65.497 38.029 65.733C27.965 68.768 20.101 75.282 16.366 83.539C12.59 84.066 9.40698 86.837 8.45898 90.669C7.42898 94.835 9.32098 99.124 12.979 101.204C12.919 104.189 13.062 107.094 13.318 109.8C10.752 111.251 8.91998 113.864 8.55498 116.959C8.01098 121.573 10.884 125.905 15.347 127.197L16.676 127.583C18.441 134.38 21.454 144.572 26.3 157.2C24.317 159.093 23.182 161.813 23.376 164.712C23.687 169.345 27.305 173.076 31.93 173.527Z" fill="white"/>
<path d="M294.674 57.327C296.953 39.968 291.656 22.425 274.386 18.885C265.047 17.041 252.884 19.238 247.312 25.88C242.469 31.679 239.939 39.524 238.57 46.388C237.307 52.737 236.085 63.739 234.142 75.755C233.216 81.763 231.983 88.017 230.597 93.218C230.252 94.477 229.915 95.936 229.58 96.751C229.206 97.742 229.121 98.654 228.417 99.902C227.846 101.084 227.29 102.28 226.747 103.491C226.069 104.656 225.395 105.819 224.726 106.97C219.193 116.235 210.904 124.26 204.138 129.48C200.784 132.145 197.801 134.111 195.738 135.482C193.638 136.793 192.458 137.529 192.458 137.529C192.458 137.529 192.009 137.864 191.417 138.589C190.822 139.312 190.083 140.44 189.484 141.95C188.277 145.035 187.61 149.749 189.738 156.945C192.599 166.946 197.508 170.822 201.57 171.97C203.625 172.575 205.408 172.483 206.715 172.284C208.022 172.089 208.782 171.716 208.782 171.716C208.782 171.716 209.207 171.565 210.006 171.275C210.799 170.974 212.003 170.584 213.483 169.975C216.468 168.786 220.757 167.043 225.85 164.45C230.984 161.946 236.874 158.468 243.147 154.113C249.413 149.746 255.872 144.143 262.033 137.58C263.513 135.858 265.005 134.125 266.501 132.385C267.268 131.525 267.953 130.583 268.635 129.629L270.688 126.768L272.73 123.878C273.407 122.917 274.052 121.664 274.702 120.562C275.982 118.295 277.359 115.877 278.224 113.87C282.361 105.274 284.813 97.737 287.082 90.566C291.36 76.397 293.712 64.551 294.674 57.327Z" fill="#03A10E" stroke="#002B03" stroke-width="0.4" stroke-miterlimit="10"/>
<path d="M268.433 18.175C268.433 18.175 267.744 18.22 266.493 18.513C265.242 18.813 263.429 19.375 261.304 20.465C259.176 21.56 256.764 23.23 254.527 25.678C253.425 26.897 252.353 28.3 251.392 29.877C250.44 31.453 249.583 33.194 248.834 35.067C247.354 38.82 246.395 43.112 245.858 47.67C245.604 49.953 245.399 52.35 245.099 54.741C244.826 57.146 244.613 59.622 244.273 62.084C243.951 64.555 243.689 67.1 243.308 69.598C243.131 70.858 242.953 72.126 242.774 73.399C242.615 74.686 242.376 75.908 242.182 77.178C241.972 78.437 241.763 79.703 241.553 80.973C241.31 82.203 241.069 83.438 240.828 84.678C240.578 85.905 240.358 87.18 240.088 88.373L239.234 91.908L238.814 93.681C238.669 94.263 238.489 94.764 238.332 95.312L237.37 98.543C237.038 99.556 236.669 100.352 236.344 101.281L235.849 102.641L235.083 104.095C234.05 106.024 233.164 108.036 231.898 109.84C231.312 110.773 230.729 111.698 230.151 112.618C229.548 113.529 228.841 114.372 228.202 115.25C222.989 122.229 216.709 128.098 210.827 132.632C209.37 133.784 207.871 134.775 206.498 135.791C205.097 136.768 203.706 137.613 202.431 138.462C199.826 140.074 197.506 141.416 195.565 142.453C193.625 143.48 192.075 144.258 191.029 144.744C189.978 145.239 189.419 145.502 189.419 145.502C189.419 145.502 189.964 145.21 190.988 144.662C192.009 144.129 193.516 143.266 195.409 142.167C197.305 141.061 199.567 139.636 202.098 137.935C203.337 137.043 204.683 136.148 206.041 135.128C207.377 134.079 208.831 133.051 210.245 131.87C211.632 130.658 213.168 129.506 214.578 128.145C215.979 126.782 217.559 125.504 218.918 123.977C220.321 122.488 221.824 121.023 223.12 119.366C223.799 118.567 224.484 117.758 225.175 116.941C225.838 116.11 226.423 115.222 227.066 114.366C227.682 113.495 228.355 112.651 228.946 111.757C229.499 110.847 230.057 109.932 230.616 109.009C231.834 107.224 232.69 105.257 233.681 103.361L234.42 101.937C234.602 101.485 234.73 101.055 234.892 100.618C235.2 99.725 235.538 98.945 235.858 97.991L236.779 94.824L237.248 93.235L237.667 91.486L238.519 88.002C238.797 86.831 239.016 85.557 239.269 84.348C239.513 83.123 239.758 81.899 240.001 80.679C240.213 79.417 240.427 78.162 240.639 76.909C241.09 74.433 241.459 71.888 241.84 69.381C242.245 66.896 242.533 64.368 242.885 61.9C243.242 59.446 243.517 56.979 243.83 54.585C244.171 52.196 244.419 49.842 244.716 47.528C245.334 42.901 246.428 38.55 248.022 34.744C249.609 30.93 251.778 27.718 254.122 25.297C256.485 22.865 258.988 21.244 261.176 20.203C263.357 19.163 265.219 18.686 266.481 18.434C267.743 18.192 268.433 18.175 268.433 18.175Z" fill="#002B03"/>
<path d="M268.433 18.175C268.433 18.175 267.85 18.507 266.881 19.317C265.919 20.124 264.583 21.42 263.133 23.26C261.677 25.101 260.153 27.517 258.78 30.473C257.426 33.428 256.239 36.914 255.358 40.798C255.244 41.278 255.131 41.762 255.014 42.251C254.932 42.758 254.848 43.269 254.763 43.784C254.595 44.812 254.422 45.864 254.248 46.926C253.957 49.061 253.656 51.253 253.346 53.52C253.045 55.787 252.736 58.112 252.419 60.49C252.085 62.856 251.744 65.274 251.397 67.734C251.015 70.168 250.627 72.652 250.23 75.161C249.784 77.64 249.329 80.147 248.873 82.675C248.339 85.15 247.801 87.645 247.263 90.149C246.607 92.53 246.058 95.065 245.324 97.361C244.578 99.638 243.886 102.034 242.98 103.969C242.274 106.014 240.989 108.11 239.882 110.194C237.594 114.35 234.806 118.195 231.908 121.806C226.038 128.999 219.207 134.819 212.983 139.319C209.855 141.561 206.878 143.494 204.174 145.114C201.469 146.733 199.047 148.037 197.044 149.097C196.032 149.605 195.13 150.059 194.345 150.453C193.553 150.828 192.882 151.146 192.34 151.402C191.248 151.926 190.668 152.164 190.668 152.164C190.668 152.164 191.237 151.898 192.299 151.325C193.366 150.77 194.918 149.912 196.895 148.815C198.852 147.688 201.221 146.301 203.855 144.593C206.485 142.881 209.384 140.871 212.425 138.559C213.967 137.433 215.453 136.117 217.052 134.848C218.619 133.539 220.133 132.08 221.751 130.666C223.288 129.17 224.81 127.59 226.383 126.011C227.816 124.312 229.366 122.657 230.799 120.886C231.485 119.979 232.175 119.065 232.871 118.145C233.562 117.228 234.297 116.331 234.882 115.332C235.505 114.362 236.13 113.389 236.76 112.409L237.703 110.945L238.512 109.403C239.574 107.358 240.846 105.286 241.501 103.311L242.108 101.828L242.417 101.089L242.681 100.242L243.759 96.87C244.155 95.789 244.433 94.536 244.752 93.348L245.695 89.766C246.241 87.284 246.784 84.813 247.322 82.362C247.556 81.107 247.79 79.858 248.022 78.614C248.256 77.367 248.523 76.15 248.73 74.902C249.152 72.406 249.566 69.938 249.97 67.513C250.351 65.064 250.723 62.657 251.086 60.299C251.445 57.927 251.797 55.608 252.137 53.349C252.492 51.08 252.84 48.865 253.174 46.726C253.374 45.667 253.572 44.622 253.766 43.599C253.864 43.086 253.957 42.58 254.055 42.077C254.186 41.573 254.315 41.073 254.446 40.58C255.423 36.656 256.753 33.155 258.232 30.208C259.723 27.258 261.35 24.869 262.883 23.06C264.404 21.241 265.825 20.018 266.823 19.251C267.835 18.479 268.433 18.175 268.433 18.175Z" fill="#002B03"/>
<path d="M269.053 18.677C269.053 18.677 268.954 18.817 268.807 19.106C268.657 19.396 268.458 19.839 268.234 20.427C268.127 20.722 268.002 21.064 267.875 21.418C267.755 21.787 267.628 22.19 267.484 22.625C267.242 23.508 266.947 24.516 266.662 25.661C266.097 27.948 265.475 30.743 264.91 33.975C264.292 37.195 263.747 40.857 263.096 44.836C262.51 48.825 261.874 53.14 261.199 57.709C261.035 58.852 260.869 60.012 260.703 61.182C260.616 61.765 260.527 62.351 260.436 62.941C260.349 63.536 260.26 64.131 260.171 64.728C259.799 67.121 259.474 69.58 259.018 72.048C258.802 73.285 258.583 74.531 258.363 75.79C258.174 77.054 257.946 78.313 257.699 79.573C257.196 82.093 256.791 84.688 256.174 87.223C255.612 89.783 255.114 92.393 254.394 94.921L253.388 98.763L252.17 102.51C251.437 105.074 250.292 107.366 249.286 109.765C248.052 112.071 246.745 114.352 245.451 116.617C243.97 118.759 242.545 120.935 240.968 122.959C240.15 123.95 239.336 124.937 238.53 125.915C237.726 126.895 236.933 127.88 236.041 128.762C234.292 130.549 232.673 132.423 230.815 133.977C229.013 135.587 227.282 137.203 225.439 138.592C224.537 139.309 223.646 140.019 222.768 140.715C221.881 141.4 220.962 142.016 220.082 142.652C219.193 143.278 218.319 143.893 217.463 144.5C216.574 145.057 215.705 145.606 214.851 146.145C213.16 147.246 211.481 148.201 209.872 149.095C208.284 150.024 206.722 150.803 205.262 151.549C202.342 153.038 199.733 154.211 197.569 155.131C195.41 156.061 193.673 156.701 192.493 157.12C191.313 157.554 190.681 157.749 190.681 157.749C190.681 157.749 191.302 157.525 192.461 157.038C193.624 156.568 195.313 155.828 197.44 154.838C199.565 153.851 202.125 152.593 204.978 151.008C206.404 150.216 207.928 149.387 209.479 148.416C211.045 147.478 212.688 146.484 214.344 145.353C215.174 144.8 216.024 144.235 216.891 143.659C217.725 143.038 218.575 142.405 219.44 141.763C220.3 141.118 221.194 140.488 222.063 139.8C222.918 139.092 223.787 138.374 224.665 137.65C226.461 136.242 228.147 134.616 229.892 132.995C230.772 132.191 231.659 131.373 232.471 130.471C233.299 129.585 234.134 128.693 234.979 127.79C235.846 126.913 236.619 125.938 237.395 124.963C238.177 123.992 238.967 123.017 239.758 122.032C241.293 120.033 242.644 117.866 244.114 115.778C245.385 113.558 246.637 111.306 247.85 109.054C248.803 106.711 249.913 104.516 250.623 101.983L251.832 98.307L252.84 94.516C253.559 92.021 254.069 89.43 254.629 86.893C255.263 84.377 255.688 81.792 256.208 79.284C256.468 78.03 256.708 76.776 256.912 75.517C257.142 74.27 257.375 73.031 257.601 71.802C258.09 69.353 258.446 66.905 258.846 64.527C258.944 63.929 259.043 63.339 259.141 62.749C259.248 62.162 259.351 61.574 259.44 60.987C259.629 59.817 259.814 58.662 260 57.523C260.091 56.955 260.183 56.39 260.273 55.829C260.372 55.268 260.469 54.712 260.566 54.159C260.746 53.05 260.923 51.959 261.098 50.886C261.47 48.747 261.831 46.671 262.175 44.683C262.362 43.689 262.542 42.716 262.718 41.765C262.9 40.817 263.072 39.898 263.244 38.981C263.609 37.175 263.944 35.457 264.315 33.854C264.994 30.634 265.711 27.852 266.358 25.579C267.002 23.303 267.637 21.552 268.152 20.392C268.405 19.812 268.625 19.38 268.787 19.096C268.948 18.81 269.053 18.677 269.053 18.677Z" fill="#002B03"/>
<path d="M270.546 18.356C270.546 18.356 270.688 19.021 270.868 20.286C270.915 20.6 270.968 20.959 271.024 21.343C271.067 21.733 271.118 22.159 271.169 22.618C271.262 23.54 271.416 24.598 271.478 25.791C271.557 26.983 271.647 28.303 271.745 29.741C271.795 30.461 271.804 31.209 271.828 31.987C271.85 32.766 271.874 33.572 271.899 34.407C272.016 37.742 271.936 41.51 271.824 45.624C271.808 46.139 271.795 46.663 271.78 47.184C271.751 47.708 271.721 48.239 271.693 48.774C271.624 49.844 271.551 50.932 271.481 52.043C271.408 53.153 271.333 54.28 271.256 55.425C271.166 56.572 271.085 57.737 270.953 58.914C270.694 61.268 270.46 63.688 270.126 66.162C269.968 67.399 269.805 68.65 269.642 69.912C269.559 70.549 269.473 71.171 269.384 71.824C269.267 72.457 269.156 73.095 269.039 73.734C268.553 76.291 268.153 78.892 267.572 81.523C267.294 82.839 267.015 84.164 266.734 85.495C266.468 86.824 266.161 88.162 265.768 89.498C265.022 92.17 264.368 94.865 263.441 97.567L262.134 101.628C261.655 102.983 261.091 104.338 260.571 105.693C259.598 108.387 258.107 111.089 256.755 113.75C255.24 116.261 253.645 118.655 252.078 121.056C251.208 122.187 250.335 123.311 249.47 124.432C248.581 125.53 247.769 126.687 246.805 127.692C245.862 128.713 244.921 129.725 243.986 130.73C243.053 131.736 242.142 132.747 241.133 133.636C239.138 135.437 237.297 137.342 235.253 138.911C233.246 140.518 231.317 142.131 229.292 143.495C228.301 144.197 227.322 144.894 226.356 145.577C225.382 146.245 224.381 146.84 223.42 147.456C222.453 148.058 221.504 148.653 220.571 149.239C219.614 149.776 218.673 150.302 217.754 150.819C215.929 151.878 214.126 152.784 212.402 153.629C210.7 154.506 209.033 155.235 207.479 155.93C204.365 157.312 201.593 158.383 199.297 159.212C197 160.053 195.167 160.618 193.898 160.989C192.646 161.369 191.947 161.545 191.947 161.545C191.947 161.545 194.665 160.729 199.185 158.915C203.704 157.101 210.072 154.257 217.289 150.001C224.49 145.748 232.565 140.059 240.129 132.601C241.115 131.715 241.996 130.707 242.908 129.709C243.818 128.712 244.734 127.706 245.657 126.691C247.433 124.607 249.07 122.347 250.793 120.135C252.318 117.769 253.882 115.413 255.351 112.946C256.657 110.345 258.096 107.729 259.059 105.073C259.572 103.746 260.13 102.422 260.602 101.089L261.907 97.093C262.829 94.435 263.486 91.768 264.233 89.125C264.624 87.809 264.934 86.48 265.209 85.157C265.499 83.838 265.791 82.524 266.081 81.219C266.688 78.612 267.11 76.022 267.621 73.485C267.743 72.848 267.866 72.215 267.984 71.586C268.075 70.974 268.169 70.329 268.26 69.709C268.439 68.456 268.614 67.216 268.792 65.988C269.168 63.537 269.442 61.133 269.744 58.795C270.027 56.453 270.194 54.17 270.391 51.967C270.486 50.866 270.584 49.783 270.68 48.719C270.721 48.187 270.761 47.661 270.804 47.137C270.829 46.619 270.859 46.098 270.885 45.588C270.981 43.542 271.074 41.58 271.161 39.713C271.259 37.849 271.269 36.078 271.288 34.418C271.292 33.587 271.297 32.784 271.301 32.006C271.299 31.228 271.318 30.481 271.288 29.763C271.242 28.326 271.198 27.009 271.161 25.816C271.149 25.519 271.14 25.229 271.131 24.946C271.11 24.666 271.089 24.393 271.072 24.13C271.037 23.601 271.004 23.106 270.971 22.644C270.939 22.182 270.911 21.753 270.884 21.363C270.845 20.978 270.81 20.618 270.777 20.303C270.655 19.028 270.546 18.356 270.546 18.356Z" fill="#002B03"/>
<path d="M271.487 18.427C271.487 18.427 271.89 18.98 272.524 20.093C273.16 21.208 274.011 22.884 274.916 25.122C275.807 27.355 276.743 30.148 277.543 33.434C278.358 36.717 279.024 40.502 279.433 44.684C279.614 46.777 279.78 48.965 279.817 51.243C279.824 51.814 279.832 52.388 279.838 52.969C279.833 53.561 279.831 54.131 279.825 54.721C279.798 55.91 279.77 57.107 279.667 58.322C279.476 60.753 279.241 63.239 278.919 65.783C278.567 68.331 278.182 70.926 277.743 73.561C277.245 76.207 276.719 78.888 276.153 81.601C275.51 84.33 274.868 87.08 274.153 89.859C273.33 92.662 272.587 95.45 271.637 98.295C271.139 99.72 270.641 101.148 270.145 102.577L269.377 104.72L268.462 106.91L266.6 111.268C265.858 112.764 265.034 114.281 264.238 115.764C263.833 116.503 263.44 117.268 263.018 117.97L261.696 119.935C260.812 121.236 259.929 122.533 259.048 123.824C258.209 125.143 257.174 126.291 256.217 127.488C255.242 128.668 254.273 129.841 253.306 131.005C251.285 133.235 249.177 135.319 247.144 137.375C244.97 139.27 242.888 141.193 240.755 142.921C238.553 144.558 236.481 146.265 234.324 147.692C230.059 150.624 225.903 153.122 221.967 155.168C219.994 156.185 218.121 157.179 216.279 157.992C214.452 158.825 212.722 159.616 211.057 160.267C207.758 161.624 204.832 162.657 202.405 163.464C199.984 164.276 198.025 164.792 196.699 165.16C195.351 165.497 194.63 165.676 194.63 165.676C194.63 165.676 195.342 165.465 196.676 165.065C197.984 164.641 199.912 164.034 202.3 163.15C204.696 162.268 207.58 161.144 210.818 159.683C212.455 158.986 214.146 158.141 215.941 157.257C217.752 156.405 219.584 155.365 221.52 154.313C225.375 152.179 229.442 149.62 233.623 146.66C235.727 145.207 237.754 143.49 239.901 141.839C241.988 140.104 244.028 138.193 246.153 136.302C248.123 134.237 250.19 132.179 252.156 129.958C253.098 128.806 254.047 127.646 255 126.483C255.941 125.303 256.947 124.164 257.773 122.87C258.637 121.598 259.502 120.323 260.366 119.044L261.66 117.107L262.842 114.943C263.608 113.492 264.422 112.008 265.13 110.552L266.972 106.272L267.879 104.124L268.64 102.011C269.137 100.601 269.633 99.191 270.128 97.786C271.072 94.978 271.823 92.216 272.649 89.447C273.38 86.7 274.05 83.977 274.716 81.277C275.306 78.591 275.857 75.934 276.376 73.314C276.853 70.706 277.28 68.134 277.671 65.618C278.036 63.102 278.313 60.641 278.541 58.246C278.666 57.049 278.728 55.864 278.782 54.71C278.799 54.14 278.817 53.543 278.834 52.979C278.836 52.407 278.842 51.837 278.844 51.274C278.856 49.023 278.739 46.85 278.599 44.773C278.302 40.622 277.747 36.849 277.034 33.568C276.329 30.286 275.482 27.482 274.654 25.232C273.83 22.978 273.054 21.268 272.459 20.132C271.869 18.996 271.487 18.427 271.487 18.427Z" fill="#002B03"/>
<path d="M275.718 20.094C275.718 20.094 276.312 20.423 277.307 21.223C278.3 22.024 279.707 23.277 281.207 25.18C282.696 27.062 284.321 29.575 285.645 32.733C286.308 34.307 286.94 36.041 287.429 37.914C287.915 39.791 288.306 41.808 288.571 43.939C289.098 48.191 289.043 52.938 288.456 57.842C287.871 62.789 287.004 67.948 285.887 73.309C284.755 78.667 283.416 84.226 281.779 89.909C280.981 92.746 279.985 95.675 279.068 98.561C278.586 100.015 277.989 101.53 277.448 103.01C276.87 104.511 276.38 105.953 275.721 107.492L273.652 112.113C273.289 112.888 272.989 113.62 272.573 114.428L271.24 116.886C270.339 118.479 269.455 120.214 268.504 121.633C267.542 123.016 266.579 124.392 265.622 125.765C263.776 128.561 261.602 131.003 259.518 133.457L257.952 135.28C257.418 135.867 256.847 136.41 256.3 136.971C255.191 138.076 254.09 139.175 252.999 140.264C251.929 141.376 250.778 142.351 249.644 143.325C248.514 144.29 247.391 145.247 246.28 146.195C244.031 148.029 241.726 149.642 239.541 151.281C237.289 152.806 235.075 154.228 232.94 155.591C230.749 156.846 228.65 158.073 226.61 159.185C224.542 160.234 222.578 161.258 220.679 162.157C218.764 163.014 216.961 163.843 215.247 164.562C213.521 165.247 211.904 165.887 210.411 166.478C208.898 167.02 207.511 167.517 206.258 167.963C203.719 168.804 201.724 169.417 200.32 169.799C198.943 170.195 198.175 170.388 198.175 170.388C198.175 170.388 198.935 170.164 200.296 169.716C201.684 169.283 203.651 168.584 206.158 167.671C211.137 165.799 218.129 162.866 226.179 158.351C234.215 153.854 243.329 147.662 252.03 139.196C254.134 137.002 256.418 134.914 258.395 132.416C260.437 129.987 262.552 127.555 264.367 124.801C265.306 123.448 266.249 122.091 267.194 120.731C268.121 119.299 268.981 117.625 269.862 116.057L271.161 113.649C271.537 112.878 271.854 112.14 272.201 111.378L274.229 106.822C275.409 103.866 276.52 100.927 277.553 98.015C278.469 95.159 279.471 92.257 280.267 89.45C281.894 83.812 283.313 78.316 284.479 73.001C285.625 67.695 286.581 62.563 287.238 57.718C287.371 56.512 287.502 55.284 287.629 54.122C287.673 53.532 287.713 52.946 287.758 52.367C287.807 51.789 287.807 51.213 287.839 50.641C287.893 48.364 287.839 46.159 287.629 44.068C287.431 41.974 287.082 39.991 286.662 38.137C286.241 36.285 285.682 34.563 285.081 32.991C283.887 29.845 282.366 27.307 280.958 25.391C279.528 23.46 278.209 22.134 277.255 21.295C276.295 20.45 275.718 20.094 275.718 20.094Z" fill="#002B03"/>
<path opacity="0.7" d="M208.781 171.717C208.781 171.717 208.02 172.09 206.714 172.285C205.407 172.483 203.624 172.576 201.569 171.971C197.507 170.823 192.598 166.947 189.737 156.946C187.609 149.75 188.276 145.036 189.483 141.951C190.082 140.44 190.821 139.312 191.416 138.59C192.008 137.865 192.457 137.53 192.457 137.53C192.457 137.53 193.638 136.795 195.737 135.483C197.8 134.112 200.783 132.146 204.137 129.481C210.903 124.261 219.192 116.236 224.725 106.971C225.395 105.82 226.069 104.656 226.746 103.492C227.289 102.281 227.845 101.085 228.416 99.903C229.12 98.655 229.205 97.743 229.579 96.752C229.914 95.937 230.251 94.478 230.596 93.219C231.982 88.018 233.215 81.764 234.141 75.756C236.083 63.739 237.306 52.738 238.569 46.389C239.938 39.525 242.468 31.68 247.311 25.881C252.883 19.239 265.046 17.042 274.385 18.886C291.655 22.426 296.952 39.969 294.673 57.328C293.711 64.552 291.36 76.398 287.078 90.566C284.808 97.737 282.356 105.274 278.22 113.87C277.356 115.878 275.979 118.296 274.698 120.562C274.049 121.665 273.403 122.917 272.726 123.878L270.684 126.768L268.631 129.629C267.949 130.583 267.264 131.524 266.497 132.385C265.001 134.125 263.51 135.859 262.029 137.58C255.868 144.143 249.409 149.746 243.143 154.113C236.871 158.467 230.98 161.946 225.846 164.45C220.753 167.044 216.464 168.787 213.479 169.975C211.999 170.584 210.795 170.974 210.002 171.275C209.206 171.565 208.781 171.717 208.781 171.717ZM285.516 51.47C287.118 38.289 283.098 24.897 269.748 22.093C262.54 20.568 253.093 22.225 248.765 27.379C245.002 31.875 243.045 37.98 242.027 43.352C241.057 48.317 240.185 56.877 238.955 66.612C238.634 69.016 238.298 71.509 237.956 74.066C237.553 76.531 237.232 79.179 236.776 81.647C236.318 84.103 235.932 86.729 235.385 89.005C235.136 90.186 234.886 91.365 234.637 92.542C234.357 93.592 234.078 94.638 233.8 95.674L233.402 97.244L232.98 98.466C232.679 99.296 232.528 100.082 232.153 100.973C231.238 102.786 230.507 104.652 229.579 106.361C228.565 108.026 227.722 109.714 226.732 111.219C225.703 112.72 224.739 114.127 223.854 115.419C221.85 117.887 220.274 120.023 218.949 121.351C217.696 122.74 216.994 123.521 216.994 123.521C216.994 123.521 216.756 123.884 216.443 124.524C216.141 125.172 215.811 126.138 215.679 127.412C215.545 128.683 215.608 130.267 216.103 132.142C216.573 133.989 217.47 136.131 219.109 138.53C221.376 141.849 223.541 144.022 225.569 145.372C227.576 146.692 229.424 147.17 231.004 147.227C232.583 147.284 233.884 146.916 234.784 146.538C235.677 146.151 236.145 145.721 236.145 145.721C236.145 145.721 237.241 144.939 239.188 143.545C241.191 142.213 243.812 139.919 247.127 137.191C248.688 135.692 250.393 134.059 252.206 132.319C254.004 130.538 255.727 128.433 257.627 126.31C258.604 125.267 259.429 124.054 260.328 122.862C261.216 121.653 262.117 120.42 263.031 119.174L263.717 118.227L264.36 117.155C264.787 116.429 265.217 115.699 265.647 114.964C266.475 113.502 267.45 111.94 268.071 110.524C273.827 98.831 277.498 86.939 280.334 76.436C283.102 65.955 284.853 56.938 285.516 51.47Z" fill="#03A10E"/>
<path d="M267.483 22.625C267.483 22.625 262.075 21.15 256.394 23.688C250.665 26.215 244.855 32.693 243.06 48.417C242.163 56.021 241.241 63.866 240.124 71.124C239.026 78.371 237.852 85.213 236.541 90.494C235.96 93.325 235.236 95.348 234.705 97.428C234.418 98.364 234.129 99.019 233.889 99.765C233.77 100.123 233.655 100.472 233.544 100.799C233.49 100.969 233.436 101.132 233.382 101.291C233.295 101.469 233.21 101.637 233.126 101.804C231.797 104.469 231.063 106.079 231.063 106.079C231.063 106.079 231.425 105.427 232.063 104.273C232.674 103.142 233.812 101.413 234.42 99.692C235.982 96.201 238.182 89.627 239.904 82.088C241.694 74.595 243.275 66.362 244.66 59.364C245.996 52.331 247.189 46.556 248.243 43.807C252.876 31.64 253.567 26.007 267.483 22.625Z" fill="#03A10E"/>
<path d="M294.674 57.327C296.953 39.968 291.656 22.425 274.386 18.885C273.486 18.698 272.56 18.556 271.614 18.454C280.914 20.993 285.292 29.766 287.134 37.917C289.005 46.063 288.333 53.565 288.333 53.565C288.333 53.565 287.938 55.499 287.253 58.882C286.521 62.27 285.485 67.108 284.068 72.935C283.378 75.842 282.505 79.026 281.648 82.366C281.164 84.05 280.665 85.785 280.156 87.556C279.651 89.321 279.128 91.126 278.496 93.001C277.886 94.858 277.266 96.748 276.639 98.661C275.909 100.612 275.168 102.586 274.42 104.576L273.856 106.066L273.177 107.618C272.719 108.651 272.26 109.689 271.801 110.725C271.309 111.777 270.941 112.754 270.339 113.868L268.556 117.169C267.949 118.242 267.364 119.408 266.728 120.381L264.791 123.219L262.851 126.027L261.882 127.416L260.824 128.723C259.408 130.439 258.003 132.142 256.613 133.824C255.169 135.438 253.657 136.932 252.212 138.443C246.309 144.327 240.345 149.131 234.993 152.704C229.698 156.384 225.052 158.934 221.807 160.693C220.197 161.594 218.87 162.178 217.994 162.631C217.11 163.069 216.64 163.3 216.64 163.3C209.557 164.832 204.674 160.765 201.677 156.545C198.67 152.305 197.292 147.86 197.292 147.86C195.062 139.06 199.052 133.99 201.94 131.17C199.126 133.256 196.729 134.832 195.067 135.906C193.388 136.952 192.456 137.529 192.456 137.529C192.456 137.529 192.007 137.864 191.415 138.589C190.82 139.312 190.081 140.44 189.482 141.95C188.275 145.035 187.608 149.749 189.736 156.945C192.597 166.946 197.506 170.822 201.568 171.97C203.623 172.575 205.406 172.483 206.713 172.284C208.02 172.089 208.78 171.716 208.78 171.716C208.78 171.716 209.205 171.565 210.004 171.275C210.797 170.974 212.001 170.584 213.481 169.975C216.466 168.786 220.755 167.043 225.848 164.45C230.982 161.946 236.872 158.468 243.145 154.113C249.411 149.746 255.87 144.143 262.031 137.58C263.511 135.858 265.003 134.125 266.499 132.385C267.266 131.525 267.951 130.583 268.633 129.629L270.686 126.768L272.728 123.878C273.405 122.917 274.05 121.664 274.7 120.562C275.98 118.295 277.357 115.877 278.222 113.87C282.359 105.274 284.811 97.737 287.08 90.566C291.36 76.397 293.712 64.551 294.674 57.327Z" fill="#03A10E"/>
<path d="M80.16 106.435C75.514 89.075 65.679 72.923 48.044 73.589C38.51 73.878 27.317 79.739 24.265 89.43C21.609 97.813 22.217 108.069 23.923 116.78C25.517 124.875 29.209 138.33 35.349 154.26C38.405 162.223 42.107 170.805 47.282 180.056C48.626 182.389 49.81 184.623 51.628 187.192C53.311 189.622 55.018 192.297 56.778 194.212C58.54 196.266 60.298 198.315 62.049 200.355C63.914 202.261 65.812 204.099 67.685 205.928C69.52 207.811 71.531 209.394 73.471 211.027C75.426 212.636 77.322 214.285 79.335 215.648C81.319 217.05 83.274 218.437 85.197 219.797C87.177 221.017 89.119 222.215 91.024 223.391C98.71 227.868 105.911 231.327 112.139 233.732C118.329 236.241 123.519 237.828 127.119 238.915C130.751 239.904 132.79 240.459 132.79 240.459C132.79 240.459 133.642 240.6 134.988 240.579C136.337 240.558 138.166 240.392 140.159 239.7C144.092 238.375 148.581 235.004 150.294 227.692C152.574 217.563 151.063 211.907 148.991 208.565C147.955 206.937 146.751 205.827 145.802 205.193C144.851 204.561 144.154 204.294 144.154 204.294C144.154 204.294 143.799 204.124 143.124 203.803C142.455 203.467 141.45 203.043 140.203 202.38C137.702 201.094 134.1 199.233 129.971 196.633C125.779 194.13 121.167 190.768 116.487 186.931C111.802 183.076 107.38 178.433 103.374 173.532C102.444 172.27 101.511 170.997 100.57 169.722C100.069 169.111 99.673 168.436 99.279 167.762L98.066 165.768L96.839 163.799C96.42 163.147 96.287 162.586 95.987 161.989C95.466 160.789 94.903 159.824 94.347 158.205C92.035 152.664 89.974 145.572 88.177 139.094C84.616 125.837 82.085 113.621 80.16 106.435Z" fill="#03A10E" stroke="#002B03" stroke-width="0.4" stroke-miterlimit="10"/>
<path d="M42.097 74.347C42.097 74.347 41.442 74.577 40.318 75.254C39.202 75.926 37.613 77.058 35.899 78.925C34.195 80.774 32.387 83.42 31.073 86.932C30.41 88.694 29.876 90.654 29.521 92.789C29.152 94.929 28.965 97.237 28.969 99.666C28.955 104.531 29.732 109.863 31.187 115.352C31.928 118.094 32.732 120.939 33.605 123.832C34.469 126.728 35.376 129.662 36.365 132.665C37.329 135.668 38.321 138.705 39.447 141.793C39.996 143.335 40.548 144.887 41.101 146.446C41.647 147.999 42.306 149.578 42.907 151.151C43.52 152.726 44.133 154.307 44.75 155.894C45.395 157.485 46.109 159.09 46.791 160.691C47.495 162.295 48.145 163.884 48.899 165.502L51.258 170.369L52.443 172.794C52.852 173.607 53.346 174.445 53.796 175.266C54.723 176.914 55.647 178.556 56.57 180.196C57.565 181.859 58.792 183.593 59.904 185.261L61.62 187.762L63.417 189.932C65.827 192.795 68.122 195.716 70.757 198.205C72.037 199.486 73.308 200.759 74.57 202.02C75.856 203.25 77.224 204.346 78.533 205.493C89.101 214.563 100.089 220.953 109.705 225.502C112.102 226.672 114.463 227.618 116.67 228.601C118.892 229.546 121.04 230.328 123.035 231.117C127.065 232.584 130.61 233.745 133.564 234.606C136.521 235.479 138.853 236.106 140.482 236.496C142.103 236.889 142.968 237.097 142.968 237.097C142.968 237.097 142.096 236.92 140.465 236.584C138.824 236.249 136.471 235.715 133.488 234.925C130.507 234.141 126.928 233.075 122.846 231.714C120.826 230.979 118.652 230.249 116.393 229.363C114.158 228.424 111.768 227.513 109.335 226.39C106.923 225.217 104.342 224.131 101.78 222.728C99.23 221.3 96.506 219.991 93.875 218.266C91.213 216.603 88.433 214.954 85.763 212.934C84.409 211.951 83.041 210.958 81.659 209.956C80.303 208.914 78.993 207.755 77.642 206.634C76.305 205.489 74.92 204.378 73.599 203.161C72.313 201.891 71.015 200.61 69.711 199.324C67.028 196.819 64.669 193.888 62.228 190.98L60.401 188.784C59.806 187.975 59.225 187.1 58.641 186.255C57.496 184.558 56.263 182.796 55.217 181.096C54.279 179.438 53.339 177.772 52.397 176.107C51.936 175.274 51.448 174.426 51.015 173.599L49.825 171.146L47.456 166.225C46.687 164.587 46.046 162.987 45.339 161.366C44.657 159.751 43.974 158.137 43.295 156.529C42.679 154.931 42.065 153.339 41.453 151.753C40.195 148.569 39.117 145.426 38.052 142.315C36.949 139.198 35.976 136.143 35.033 133.114C34.057 130.088 33.203 127.117 32.376 124.203C31.542 121.28 30.785 118.451 30.069 115.644C28.658 110.026 27.983 104.552 28.084 99.571C28.153 94.588 29.112 90.155 30.557 86.62C31.999 83.084 33.917 80.463 35.691 78.658C37.482 76.831 39.134 75.795 40.279 75.168C41.433 74.544 42.097 74.347 42.097 74.347Z" fill="#002B03"/>
<path d="M42.097 74.347C42.097 74.347 41.622 74.886 40.927 76.061C40.228 77.235 39.335 79.067 38.513 81.578C37.708 84.083 36.999 87.29 36.732 91.068C36.439 94.852 36.591 99.195 37.241 103.895C37.323 104.476 37.406 105.063 37.489 105.657C37.607 106.258 37.729 106.862 37.851 107.474C38.103 108.694 38.321 109.949 38.62 111.205C39.245 113.71 39.89 116.286 40.555 118.949C41.302 121.602 42.074 124.327 42.859 127.112C43.722 129.886 44.602 132.721 45.498 135.604C46.423 138.487 47.47 141.402 48.471 144.354C49.532 147.305 50.686 150.29 51.807 153.292C53.014 156.295 54.299 159.317 55.573 162.346L57.734 166.893C58.476 168.408 59.119 169.916 60.005 171.442C63.078 177.416 67.354 183.906 71.761 188.852C76.159 194.06 81.04 198.602 85.927 202.692C95.785 210.807 106.073 216.516 115.071 220.656C119.586 222.71 123.793 224.389 127.564 225.738C131.336 227.088 134.672 228.111 137.435 228.891C138.824 229.264 140.063 229.597 141.141 229.888C142.236 230.144 143.163 230.361 143.916 230.536C145.418 230.89 146.248 231.041 146.248 231.041C146.248 231.041 145.413 230.921 143.901 230.623C142.375 230.351 140.155 229.9 137.363 229.2C134.575 228.498 131.202 227.566 127.382 226.32C123.561 225.082 119.296 223.497 114.712 221.524C112.408 220.567 110.087 219.369 107.635 218.226C105.208 217.03 102.775 215.619 100.232 214.232C97.745 212.743 95.226 211.122 92.639 209.475C90.162 207.649 87.562 205.86 85.05 203.841C83.818 202.793 82.575 201.738 81.324 200.673C80.073 199.601 78.786 198.554 77.631 197.33C76.443 196.138 75.248 194.939 74.047 193.735C73.45 193.126 72.839 192.529 72.255 191.901L70.592 189.919C68.394 187.226 66.078 184.709 64.077 181.482L62.532 179.161L61.765 177.996L61.124 176.851L58.576 172.239C57.685 170.686 57.027 169.165 56.287 167.63L54.12 163.028C52.834 159.972 51.559 156.921 50.343 153.892C49.78 152.379 49.217 150.871 48.658 149.372C48.12 147.864 47.54 146.365 47.044 144.877C46.063 141.9 45.036 138.963 44.136 136.056C43.265 133.15 42.408 130.292 41.572 127.495C40.824 124.685 40.093 121.935 39.379 119.258C38.752 116.564 38.138 113.931 37.547 111.393C37.274 110.121 37.082 108.867 36.853 107.636C36.745 107.022 36.636 106.413 36.528 105.81C36.456 105.194 36.382 104.582 36.308 103.977C35.73 99.181 35.713 94.763 36.125 90.943C36.509 87.128 37.328 83.914 38.219 81.42C39.113 78.915 40.113 77.14 40.856 75.997C41.599 74.858 42.097 74.347 42.097 74.347Z" fill="#002B03"/>
<path d="M42.8339 74.758C42.8339 74.758 42.7789 74.938 42.7219 75.301C42.6589 75.664 42.5949 76.213 42.5489 76.935C42.5339 77.293 42.5159 77.706 42.4989 78.141C42.4969 78.586 42.4929 79.073 42.4909 79.596C42.5199 80.651 42.5439 81.862 42.6459 83.215C42.8139 85.927 43.1669 89.215 43.7289 92.975C44.2899 96.728 45.0719 100.953 46.0199 105.536C46.4969 107.831 47.0589 110.207 47.6489 112.663C48.2259 115.123 48.8669 117.657 49.5839 120.251C49.9379 121.548 50.2989 122.862 50.6629 124.194C50.8409 124.855 51.0309 125.523 51.2319 126.19C51.4359 126.859 51.6439 127.532 51.8519 128.208C52.6899 130.914 53.4809 133.689 54.4329 136.481C54.8929 137.88 55.3549 139.288 55.8229 140.712C56.2919 142.128 56.8049 143.543 57.3449 144.963C58.4319 147.8 59.4079 150.696 60.6449 153.554C61.8689 156.41 63.0219 159.308 64.4459 162.139L66.4909 166.412C67.2349 167.817 68.0309 169.206 68.7999 170.601C70.2359 173.427 72.1789 176.07 73.9209 178.748C75.8829 181.253 77.8939 183.686 79.8999 186.074C82.1099 188.283 84.1489 190.615 86.3689 192.705C87.5049 193.725 88.6339 194.735 89.7509 195.74C90.8689 196.748 91.9689 197.755 93.1629 198.627C95.5309 200.397 97.7209 202.313 100.104 203.859C102.44 205.47 104.694 207.092 107.038 208.435C108.19 209.134 109.327 209.826 110.447 210.505C111.577 211.167 112.73 211.747 113.84 212.358C114.957 212.961 116.052 213.552 117.129 214.134C118.229 214.666 119.307 215.193 120.363 215.705C122.461 216.768 124.52 217.675 126.487 218.524C128.435 219.416 130.331 220.145 132.107 220.845C135.656 222.244 138.812 223.313 141.429 224.134C144.043 224.958 146.118 225.552 147.546 225.922C148.968 226.309 149.743 226.478 149.743 226.478C149.743 226.478 148.961 226.341 147.524 226.009C146.083 225.69 143.981 225.199 141.338 224.44C138.694 223.694 135.501 222.716 131.897 221.416C130.095 220.768 128.168 220.092 126.189 219.249C124.19 218.448 122.096 217.588 119.969 216.559C118.895 216.064 117.799 215.559 116.682 215.043C115.584 214.481 114.469 213.911 113.331 213.328C112.203 212.732 111.032 212.164 109.883 211.519C108.743 210.849 107.584 210.172 106.411 209.484C104.027 208.164 101.728 206.567 99.3429 204.972C98.1479 204.184 96.9439 203.374 95.8029 202.451C94.6379 201.563 93.4589 200.664 92.2709 199.759C91.0559 198.885 89.9299 197.883 88.7919 196.872C87.6489 195.864 86.4979 194.85 85.3399 193.829C83.0689 191.735 80.9699 189.395 78.7399 187.145C76.6839 184.736 74.6549 182.261 72.6389 179.733C70.8579 177.002 68.8449 174.288 67.3869 171.433L65.0519 167.17L62.9979 162.844C61.5709 159.973 60.4119 157.055 59.1889 154.168C57.9599 151.272 56.9919 148.348 55.9149 145.482C55.3859 144.044 54.8789 142.613 54.4199 141.185C53.9649 139.754 53.5139 138.333 53.0649 136.923C52.1409 134.11 51.3739 131.319 50.5639 128.597C50.3659 127.913 50.1709 127.234 49.9739 126.562C49.7809 125.885 49.5989 125.208 49.4279 124.535C49.0809 123.191 48.7399 121.863 48.4039 120.556C48.2349 119.901 48.0669 119.251 47.9029 118.606C47.7449 117.958 47.5889 117.316 47.4349 116.678C47.1459 115.4 46.8619 114.139 46.5809 112.9C46.0259 110.421 45.5439 108.016 45.0999 105.708C44.8919 104.549 44.6889 103.415 44.4909 102.308C44.2939 101.2 44.0869 100.12 43.9489 99.059C43.6459 96.937 43.3389 94.93 43.1229 93.036C42.6699 89.247 42.4129 85.938 42.3239 83.212C42.2079 80.487 42.3119 78.351 42.4569 76.917C42.5339 76.197 42.6209 75.653 42.6959 75.292C42.7719 74.932 42.8339 74.758 42.8339 74.758Z" fill="#002B03"/>
<path d="M44.188 74.007C44.188 74.007 44.505 74.707 45.046 76.05C45.18 76.385 45.335 76.765 45.501 77.173C45.66 77.589 45.833 78.042 46.022 78.534C46.39 79.519 46.847 80.635 47.29 81.916C47.743 83.192 48.246 84.605 48.795 86.143C49.083 86.907 49.341 87.717 49.623 88.551C49.904 89.387 50.193 90.251 50.494 91.146C51.766 94.7 52.994 98.775 54.464 103.176C54.644 103.726 54.825 104.288 55.007 104.847C55.18 105.41 55.355 105.983 55.53 106.56C55.895 107.708 56.267 108.878 56.645 110.07C57.02 111.262 57.403 112.472 57.791 113.702C58.188 114.927 58.595 116.178 59 117.431C59.787 119.961 60.561 122.572 61.448 125.202C61.88 126.521 62.316 127.853 62.756 129.198C62.976 129.879 63.19 130.539 63.417 131.239C63.636 131.917 63.856 132.596 64.077 133.279C64.984 135.998 65.805 138.812 66.815 141.567C67.308 142.952 67.802 144.344 68.299 145.745C68.779 147.154 69.298 148.548 69.822 149.938C70.874 152.72 71.84 155.591 73.052 158.295L74.793 162.42C75.408 163.766 76.088 165.053 76.731 166.372C77.928 169.108 79.46 171.414 80.852 173.873C82.486 176.236 84.245 178.57 85.947 180.887C86.899 181.973 87.845 183.056 88.788 184.132C89.753 185.191 90.593 186.355 91.624 187.338C92.631 188.342 93.634 189.343 94.628 190.334C95.622 191.331 96.592 192.339 97.676 193.215C99.811 194.996 101.775 196.918 103.98 198.473C106.118 200.105 108.176 201.762 110.347 203.15C111.416 203.876 112.467 204.589 113.504 205.296C114.552 205.984 115.629 206.594 116.662 207.234C117.704 207.866 118.728 208.488 119.733 209.099C120.768 209.662 121.783 210.216 122.776 210.757C124.747 211.879 126.692 212.85 128.553 213.759C130.395 214.713 132.194 215.507 133.88 216.269C137.252 217.794 140.26 218.982 142.754 219.905C145.246 220.83 147.225 221.509 148.573 221.937C149.926 222.384 150.636 222.579 150.636 222.579C150.636 222.579 147.71 221.891 142.644 220.203C137.595 218.501 130.437 215.771 122.326 211.584C114.229 207.406 105.169 201.734 96.707 194.286C95.603 193.409 94.613 192.391 93.593 191.395C92.574 190.401 91.547 189.396 90.515 188.385C88.521 186.305 86.676 184.045 84.71 181.872C82.977 179.518 81.17 177.167 79.502 174.757C78.055 172.248 76.476 169.864 75.265 167.098C74.619 165.754 73.931 164.448 73.317 163.085L71.574 158.921C70.358 156.185 69.395 153.303 68.347 150.504C67.827 149.102 67.304 147.702 66.831 146.281C66.346 144.869 65.863 143.463 65.382 142.065C64.387 139.285 63.592 136.454 62.705 133.714C62.492 133.026 62.275 132.344 62.062 131.659C61.855 131 61.638 130.305 61.427 129.636C61.005 128.282 60.585 126.945 60.169 125.617C59.322 122.972 58.588 120.351 57.843 117.805C57.066 115.272 56.297 112.812 55.607 110.41C55.256 109.212 54.91 108.034 54.571 106.878C54.405 106.297 54.241 105.722 54.081 105.154C53.911 104.591 53.742 104.028 53.576 103.473C52.909 101.252 52.241 99.131 51.663 97.099C51.1 95.059 50.476 93.153 49.923 91.352C49.648 90.449 49.384 89.576 49.131 88.732C48.871 87.89 48.638 87.072 48.371 86.299C47.871 84.748 47.411 83.32 46.994 82.033C46.89 81.711 46.79 81.395 46.69 81.092C46.585 80.788 46.485 80.497 46.384 80.212C46.192 79.642 46.011 79.107 45.841 78.608C45.674 78.109 45.518 77.648 45.375 77.227C45.226 76.812 45.087 76.427 44.963 76.086C44.479 74.721 44.188 74.007 44.188 74.007Z" fill="#002B03"/>
<path d="M45.118 73.844C45.118 73.844 45.657 74.341 46.584 75.388C47.506 76.433 48.834 78.025 50.365 80.177C51.915 82.33 53.666 85.046 55.526 88.277C57.383 91.506 59.307 95.266 61.229 99.453C62.188 101.548 63.087 103.77 64.044 106.064C64.273 106.639 64.507 107.222 64.741 107.806C64.97 108.41 65.19 108.991 65.419 109.593C65.851 110.821 66.282 112.046 66.716 113.283C67.574 115.77 68.371 118.355 69.188 120.982C70.031 123.596 70.838 126.282 71.657 129.003C72.494 131.703 73.342 134.445 74.2 137.222C75.093 139.953 75.997 142.716 76.906 145.501C77.89 148.193 78.789 151.007 79.81 153.673L81.37 157.639L82.146 159.622L82.997 161.468L84.671 165.184L86.45 168.443C86.751 168.988 87.009 169.534 87.339 170.086L88.481 171.731C89.236 172.838 89.99 173.94 90.737 175.04C91.435 176.179 92.36 177.157 93.18 178.205C94.018 179.246 94.851 180.28 95.681 181.311C97.441 183.294 99.294 185.183 101.066 187.099C103.014 188.854 104.853 190.679 106.794 192.334C108.794 193.922 110.651 195.618 112.652 197.05C116.591 199.993 120.492 202.633 124.238 204.883C126.113 205.999 127.9 207.11 129.68 208.025C131.436 208.993 133.101 209.924 134.718 210.694C137.906 212.339 140.772 213.627 143.138 214.639C145.511 215.67 147.382 216.406 148.659 216.92C149.929 217.401 150.606 217.66 150.606 217.66C150.606 217.66 149.917 217.433 148.622 217.012C147.325 216.551 145.417 215.902 143.009 214.942C140.602 214.005 137.689 212.802 134.434 211.258C132.785 210.535 131.085 209.647 129.291 208.736C127.475 207.86 125.652 206.783 123.735 205.708C119.905 203.541 115.922 200.958 111.896 198.048C109.856 196.629 107.942 194.956 105.892 193.382C103.917 191.721 102.025 189.903 100.035 188.142C98.222 186.214 96.301 184.336 94.508 182.323C93.657 181.286 92.802 180.24 91.944 179.188C91.094 178.132 90.169 177.129 89.454 175.97C88.686 174.857 87.915 173.738 87.141 172.614L85.971 170.942L85.053 169.261C84.449 168.13 83.813 167.066 83.209 165.904L81.512 162.125L80.653 160.246L79.877 158.236C79.355 156.896 78.836 155.56 78.316 154.227C77.296 151.53 76.4 148.704 75.423 145.99C74.537 143.184 73.661 140.403 72.792 137.657C71.959 134.868 71.137 132.114 70.328 129.405C69.549 126.673 68.784 123.977 67.987 121.358C67.216 118.727 66.465 116.141 65.652 113.657C65.246 112.421 64.845 111.192 64.451 109.986C64.24 109.396 64.024 108.783 63.819 108.203C63.596 107.617 63.377 107.035 63.157 106.458C62.252 104.166 61.392 101.94 60.48 99.841C58.66 95.639 56.858 91.841 55.085 88.582C53.317 85.315 51.638 82.562 50.151 80.373C48.682 78.178 47.42 76.528 46.533 75.449C45.641 74.363 45.118 73.844 45.118 73.844Z" fill="#002B03"/>
<path d="M49.6639 74.533C49.6639 74.533 50.3269 74.726 51.5119 75.305C52.6909 75.884 54.4179 76.84 56.4079 78.411C58.4219 79.969 60.6989 82.126 62.9949 84.982C64.1439 86.405 65.2639 88 66.3839 89.75C67.4899 91.509 68.5249 93.437 69.5219 95.497C70.5289 97.549 71.4549 99.756 72.2879 102.085C73.1509 104.398 73.9269 106.828 74.6059 109.336C76.0429 114.36 77.3979 119.624 78.8129 125.03C80.2319 130.427 81.7509 135.923 83.3419 141.379C84.1279 144.122 85.0299 146.723 85.8529 149.439C86.2809 150.774 86.7679 151.991 87.2169 153.282C87.6809 154.533 88.1119 155.892 88.5969 157.063L90.0419 160.542C90.2809 161.106 90.5119 161.75 90.7559 162.254L91.4879 163.682L92.2009 165.129C92.4599 165.62 92.5939 166.094 92.9839 166.615C93.6559 167.65 94.3239 168.68 94.9899 169.708C96.2209 171.842 97.8269 173.737 99.2999 175.707L100.409 177.181C100.795 177.66 101.232 178.103 101.638 178.564C102.46 179.485 103.28 180.401 104.091 181.309C104.868 182.25 105.774 183.08 106.65 183.924C107.523 184.777 108.389 185.62 109.248 186.456C111.003 188.099 112.871 189.584 114.612 191.128C116.481 192.553 118.298 193.94 120.058 195.284C121.911 196.544 123.703 197.762 125.421 198.932C127.21 200.03 128.926 201.084 130.56 202.088C132.24 203.031 133.835 203.93 135.335 204.774C136.871 205.566 138.308 206.308 139.637 206.994C140.989 207.637 142.232 208.224 143.356 208.756C145.618 209.751 147.401 210.562 148.615 211.037C149.837 211.551 150.472 211.793 150.472 211.793C150.472 211.793 149.826 211.578 148.583 211.117C147.349 210.69 145.528 209.963 143.228 209.037C138.637 207.13 132.121 204.109 124.914 199.724C117.717 195.359 109.895 189.512 103.05 182.298C102.212 181.387 101.368 180.47 100.52 179.545C99.6309 178.655 98.8719 177.663 98.1129 176.664C96.5789 174.686 94.9489 172.758 93.6789 170.59C92.9949 169.546 92.3079 168.497 91.6179 167.447C90.9919 166.412 90.6029 165.426 90.0659 164.433L89.2959 162.962L88.5599 161.201L87.0709 157.668C86.1419 155.137 85.2139 152.551 84.3239 149.935C83.5009 147.196 82.5989 144.577 81.8219 141.814C80.2209 136.331 78.7899 130.793 77.4139 125.384C76.0359 119.975 74.7679 114.664 73.4299 109.692C73.0849 108.453 72.7359 107.193 72.4059 105.999C72.2179 105.403 72.0339 104.811 71.8469 104.222C71.6699 103.63 71.4499 103.061 71.2579 102.487C70.4819 100.186 69.6369 97.991 68.6849 95.953C67.7479 93.908 66.7679 91.992 65.7329 90.232C64.6849 88.477 63.6269 86.871 62.5399 85.429C60.3649 82.537 58.1799 80.326 56.2279 78.708C54.2979 77.089 52.6349 76.033 51.4759 75.399C50.3219 74.762 49.6639 74.533 49.6639 74.533Z" fill="#002B03"/>
<path opacity="0.7" d="M144.155 204.294C144.155 204.294 144.852 204.562 145.803 205.193C146.751 205.827 147.955 206.937 148.992 208.565C151.063 211.907 152.575 217.563 150.295 227.692C148.582 235.004 144.093 238.375 140.16 239.7C138.167 240.392 136.338 240.557 134.989 240.579C133.642 240.599 132.791 240.459 132.791 240.459C132.791 240.459 130.752 239.904 127.12 238.915C123.519 237.828 118.33 236.241 112.14 233.732C105.911 231.328 98.71 227.868 91.025 223.391C89.12 222.215 87.178 221.017 85.198 219.797C83.275 218.437 81.32 217.05 79.336 215.648C77.322 214.285 75.427 212.636 73.472 211.027C71.532 209.394 69.521 207.811 67.686 205.928C65.813 204.099 63.915 202.261 62.05 200.355C60.299 198.314 58.541 196.265 56.779 194.212C55.018 192.297 53.311 189.621 51.629 187.192C49.812 184.624 48.627 182.389 47.283 180.056C42.107 170.805 38.405 162.223 35.35 154.26C29.21 138.329 25.518 124.874 23.924 116.78C22.218 108.069 21.61 97.813 24.266 89.43C27.319 79.739 38.511 73.878 48.045 73.589C65.68 72.923 75.515 89.074 80.161 106.435C82.086 113.622 84.617 125.837 88.18 139.094C89.977 145.573 92.038 152.664 94.35 158.205C94.906 159.824 95.468 160.789 95.99 161.989C96.29 162.586 96.423 163.146 96.842 163.799L98.069 165.768L99.282 167.762C99.676 168.436 100.072 169.111 100.573 169.722C101.514 170.996 102.447 172.27 103.377 173.532C107.383 178.433 111.805 183.076 116.49 186.931C121.171 190.768 125.782 194.13 129.974 196.633C134.104 199.233 137.705 201.094 140.206 202.38C141.453 203.043 142.458 203.467 143.127 203.803C143.8 204.124 144.155 204.294 144.155 204.294ZM69.424 104.164C65.892 90.43 58.154 77.777 44.5 78.357C37.124 78.679 28.512 83.248 26.156 90.733C24.116 97.209 24.57 105.117 25.826 111.823C27.022 118.05 29.8 128.434 33.989 140.551C35.088 143.594 36.178 146.724 37.417 149.94C38.73 153.181 39.937 156.432 41.433 159.79C42.942 163.15 44.326 166.475 46.124 169.924C46.983 171.627 47.844 173.329 48.702 175.024C49.706 176.767 50.707 178.502 51.7 180.226C52.203 181.079 52.703 181.93 53.201 182.778C53.814 183.674 54.424 184.569 55.033 185.459C56.257 187.194 57.463 189.04 58.702 190.571C61.222 193.466 63.582 196.363 66.053 198.882C68.598 201.32 70.955 203.737 73.336 205.773C75.749 207.76 78.004 209.622 80.094 211.273C84.424 214.331 87.932 216.841 90.517 218.288C93.056 219.811 94.481 220.667 94.481 220.667C94.481 220.667 95.075 220.982 96.101 221.219C97.122 221.467 98.545 221.694 100.152 221.603C101.757 221.515 103.539 221.104 105.282 220.087C107.042 219.031 108.756 217.372 110.253 214.884C112.327 211.436 113.299 208.527 113.65 206.135C114.018 203.708 113.781 201.767 113.289 200.275C112.799 198.78 112.057 197.723 111.431 197.034C110.815 196.335 110.341 195.97 110.341 195.97C110.341 195.97 109.383 195.134 107.673 193.644C105.897 192.236 103.695 189.848 100.89 187.138C99.615 185.678 98.224 184.09 96.742 182.391C95.284 180.693 93.973 178.719 92.472 176.785C91.69 175.84 91.099 174.732 90.422 173.667C89.759 172.599 89.083 171.515 88.398 170.412L87.88 169.592L87.492 168.772C87.235 168.228 86.977 167.683 86.717 167.134C86.205 166.011 85.631 165.058 85.163 163.704C81.096 153.753 77.868 141.327 75.344 130.444C72.814 119.491 70.891 109.875 69.424 104.164Z" fill="#03A10E"/>
<path d="M42.491 79.596C42.491 79.596 36.834 79.445 32.204 84.069C29.896 86.379 27.848 89.907 26.969 95.258C26.104 100.605 26.372 107.787 28.93 117.347C31.41 126.601 34.269 136.12 37.556 145.261C40.833 154.409 44.301 163.101 48.208 170.853C49.959 174.651 52.234 178.398 54.041 181.592C55.039 183.237 56.213 184.877 57.191 186.324C57.697 187.053 58.183 187.752 58.648 188.423C58.881 188.753 59.112 189.076 59.336 189.393C59.565 189.666 59.791 189.936 60.01 190.196C63.531 194.37 65.611 196.727 65.611 196.727C65.611 196.727 64.767 195.68 63.273 193.823C61.794 191.911 59.607 189.476 57.202 185.486C52.301 177.831 47.808 168.172 44.21 158.256C40.551 148.322 37.52 138.05 35.339 129.349C33.229 120.654 31.908 113.531 31.789 109.966C31.297 94.312 30.24 87.455 42.491 79.596Z" fill="#03A10E"/>
<path d="M80.16 106.435C75.514 89.075 65.679 72.923 48.044 73.589C47.124 73.624 46.189 73.71 45.248 73.84C54.901 74.209 61.602 82.115 66.103 89.852C70.572 97.599 72.846 105.185 72.846 105.185C72.846 105.185 73.232 107.235 73.909 110.822C74.624 114.387 75.643 119.485 77.018 125.509C77.689 128.532 78.525 131.719 79.348 135.15C79.803 136.822 80.273 138.537 80.752 140.293C81.226 142.055 81.715 143.853 82.284 145.589C82.834 147.354 83.39 149.147 83.957 150.963C84.577 152.688 85.204 154.431 85.836 156.192L86.308 157.519L86.829 158.73L87.865 161.17C88.218 161.95 88.541 162.892 88.912 163.556L89.993 165.622C90.377 166.321 90.639 167.011 91.107 167.735L92.578 169.923L94.035 172.121L94.756 173.225L95.585 174.257C96.688 175.641 97.781 177.013 98.863 178.368C100.007 179.686 101.249 180.916 102.405 182.182C107.202 187.101 112.261 191.366 116.997 194.603C121.644 197.953 125.884 200.352 128.85 202.021C130.321 202.882 131.552 203.428 132.359 203.864C133.173 204.286 133.609 204.509 133.609 204.509C138.713 208.856 139.479 214.971 138.885 220.205C138.303 225.425 136.214 229.576 136.214 229.576C131.583 237.447 122.062 237.086 116.151 235.291C121.222 237.157 125.389 238.412 128.278 239.246C131.18 240.028 132.789 240.462 132.789 240.462C132.789 240.462 133.641 240.603 134.987 240.582C136.336 240.561 138.165 240.395 140.158 239.703C144.091 238.378 148.58 235.007 150.293 227.695C152.573 217.566 151.062 211.91 148.99 208.568C147.954 206.94 146.75 205.83 145.801 205.196C144.85 204.564 144.153 204.297 144.153 204.297C144.153 204.297 143.798 204.127 143.123 203.806C142.454 203.47 141.449 203.046 140.202 202.383C137.701 201.097 134.099 199.236 129.97 196.636C125.778 194.133 121.166 190.771 116.486 186.934C111.801 183.079 107.379 178.436 103.373 173.535C102.443 172.273 101.51 171 100.569 169.725C100.068 169.114 99.672 168.439 99.278 167.765L98.065 165.771L96.838 163.802C96.419 163.15 96.286 162.589 95.986 161.992C95.465 160.792 94.902 159.827 94.346 158.208C92.034 152.667 89.973 145.575 88.176 139.097C84.616 125.837 82.085 113.621 80.16 106.435Z" fill="#03A10E"/>
<path d="M211.311 81.212C210.885 53.001 200.912 25.412 175.042 21.733C161.065 19.746 143.319 25.27 136.082 38.049C129.799 49.144 127.44 63.647 126.853 76.258C124.669 123.078 140.308 300.535 140.308 300.535C140.308 300.535 143.383 318.342 165.583 318.833C196.324 319.509 196.362 299.245 196.362 299.245C196.362 299.245 212.014 128.093 211.311 81.212Z" fill="#03A10E"/>
<path d="M167.074 319.609C166.588 319.613 166.074 319.602 165.565 319.592C143.002 319.092 139.592 300.848 139.559 300.664C139.395 298.827 123.932 122.558 126.096 76.223C126.604 65.248 128.637 49.651 135.42 37.675C140.239 29.165 152.59 20.578 169.314 20.578C171.308 20.578 173.27 20.715 175.15 20.981C197.749 24.194 211.55 46.705 212.07 81.198C212.766 127.584 197.274 297.603 197.119 299.316C197.123 299.452 196.743 319.609 167.074 319.609ZM169.314 22.097C157.704 22.097 143.129 27.146 136.744 38.423C130.106 50.141 128.115 65.486 127.61 76.295C125.454 122.526 140.907 298.695 141.063 300.47C141.177 301.108 144.315 317.604 165.598 318.074C166.095 318.085 166.589 318.09 167.069 318.09C195.178 318.094 195.6 300.014 195.604 299.244C195.764 297.467 211.246 127.528 210.552 81.223C210.042 47.541 196.729 25.583 174.935 22.486C173.126 22.228 171.235 22.097 169.314 22.097Z" fill="#002B03"/>
<path d="M166.182 21.302C166.182 21.302 165.169 21.471 163.357 22.155C161.551 22.839 158.941 24.064 155.944 26.283C152.956 28.493 149.609 31.785 146.677 36.434C145.221 38.757 143.863 41.396 142.701 44.332C141.537 47.265 140.56 50.482 139.79 53.922C138.251 60.801 137.626 68.556 137.793 76.721C137.898 80.808 138.076 85.068 138.217 89.387C138.371 93.712 138.605 98.123 138.777 102.611C138.95 107.099 139.189 111.666 139.403 116.287C139.514 118.598 139.625 120.922 139.734 123.257C139.855 125.595 139.976 127.944 140.097 130.298C140.547 139.732 141.054 149.307 141.56 158.884C143.59 197.199 145.619 235.513 147.14 264.249C147.326 267.843 147.5 271.285 147.67 274.561C147.826 277.836 147.976 280.944 148.115 283.863C148.401 289.706 148.651 294.797 148.857 298.988C149.245 307.377 149.467 312.169 149.467 312.169C149.467 312.169 149.365 310.975 149.176 308.737C148.988 306.497 148.696 303.215 148.376 299.03C148.047 294.85 147.651 289.772 147.193 283.946C146.968 281.031 146.728 277.933 146.475 274.666C146.238 271.395 145.986 267.958 145.726 264.373C145.466 260.785 145.199 257.049 144.919 253.183C144.655 249.314 144.381 245.313 144.102 241.203C143.539 232.978 142.962 224.307 142.407 215.329C141.846 206.354 141.259 197.081 140.734 187.65C140.467 182.935 140.2 178.183 139.932 173.412C139.67 168.641 139.387 163.853 139.156 159.06C138.677 149.477 138.199 139.89 137.778 130.453C137.56 125.733 137.377 121.05 137.204 116.421C137.032 111.793 136.833 107.225 136.701 102.722C136.558 98.221 136.418 93.79 136.318 89.46C136.241 85.124 136.132 80.915 136.084 76.754C136.026 68.432 136.838 60.525 138.54 53.518C140.213 46.497 142.914 40.474 146.022 35.842C149.142 31.197 152.633 27.974 155.713 25.846C158.808 23.704 161.489 22.631 163.319 22.021C165.165 21.421 166.182 21.302 166.182 21.302Z" fill="#002B03"/>
<path d="M166.182 21.302C166.182 21.302 165.356 21.959 164.03 23.486C162.704 25.007 160.902 27.426 159.012 30.83C157.128 34.228 155.204 38.654 153.666 44.007C152.121 49.358 150.977 55.624 150.387 62.535C150.312 63.389 150.238 64.254 150.161 65.126C150.134 66.019 150.106 66.922 150.081 67.835C150.032 69.654 149.956 71.515 149.932 73.399C149.963 77.159 149.937 81.038 149.99 85.04C150.072 89.049 150.155 93.167 150.242 97.375C150.367 101.587 150.487 105.889 150.615 110.262C150.724 114.64 150.917 119.086 151.066 123.586C151.231 128.088 151.398 132.645 151.567 137.237C151.743 141.829 151.92 146.459 152.096 151.108C152.293 155.751 152.489 160.421 152.685 165.083C153.08 174.416 153.473 183.745 153.86 192.931C154.263 202.115 154.661 211.154 155.045 219.902C155.822 237.398 156.545 253.727 157.169 267.723C157.481 274.721 157.767 281.136 158.02 286.823C158.276 292.511 158.497 297.469 158.709 301.549C158.809 303.59 158.896 305.411 158.973 306.998C159.054 308.582 159.128 309.932 159.183 311.022C159.299 313.21 159.361 314.374 159.361 314.374C159.361 314.374 159.254 313.213 159.051 311.035C158.848 308.858 158.547 305.664 158.24 301.59C157.91 297.52 157.543 292.571 157.121 286.898C156.688 281.226 156.247 274.821 155.782 267.832C155.328 260.842 154.824 253.272 154.358 245.256C153.879 237.243 153.37 228.797 152.918 220.048C152.443 211.305 151.96 202.268 151.525 193.082C151.104 183.894 150.658 174.562 150.271 165.226C150.087 160.556 149.904 155.888 149.721 151.239C149.558 146.584 149.394 141.951 149.234 137.355C149.156 135.054 149.078 132.767 149.001 130.487C148.94 128.209 148.881 125.939 148.819 123.686C148.711 119.176 148.558 114.725 148.49 110.343C148.41 105.959 148.332 101.65 148.254 97.43C148.233 93.209 148.212 89.078 148.19 85.057C148.204 81.028 148.27 77.094 148.323 73.3C148.386 71.408 148.504 69.561 148.587 67.738C148.635 66.828 148.679 65.927 148.724 65.033C148.821 64.132 148.919 63.235 149.015 62.35C149.738 55.334 151.095 49.009 152.824 43.647C154.545 38.277 156.624 33.878 158.627 30.518C160.624 27.145 162.562 24.833 163.942 23.372C165.329 21.912 166.182 21.302 166.182 21.302Z" fill="#002B03"/>
<path d="M167.152 22.088C167.152 22.088 167.026 22.338 166.84 22.853C166.656 23.368 166.416 24.152 166.154 25.189C166.038 25.713 165.885 26.292 165.752 26.938C165.627 27.587 165.489 28.293 165.34 29.058C165.094 30.604 164.794 32.373 164.546 34.372C164.028 38.367 163.55 43.25 163.231 48.872C162.867 54.488 162.684 60.845 162.504 67.772C162.396 74.707 162.355 82.22 162.429 90.168C162.454 92.155 162.481 94.17 162.504 96.208C162.517 97.225 162.532 98.248 162.547 99.276C162.573 100.308 162.598 101.347 162.62 102.391C162.714 106.568 162.808 110.836 162.904 115.175C162.951 117.346 162.997 119.533 163.043 121.738C163.117 123.939 163.189 126.152 163.264 128.383C163.41 132.842 163.56 137.355 163.711 141.903C164.094 151.003 164.484 160.25 164.875 169.497C165.273 178.748 165.56 188.01 165.893 197.122C166.068 201.681 166.148 206.203 166.262 210.671C166.369 215.14 166.475 219.554 166.579 223.895C166.692 228.237 166.768 232.506 166.814 236.684C166.869 240.866 166.919 244.954 166.971 248.932C167.072 256.895 167.185 264.419 167.198 271.369C167.231 278.315 167.225 284.685 167.219 290.33C167.213 295.973 167.211 300.896 167.206 304.949C167.211 309.003 167.176 312.185 167.168 314.355C167.154 316.526 167.15 317.686 167.15 317.686C167.15 317.686 167.109 316.527 167.037 314.357C166.969 312.188 166.843 309.007 166.735 304.956C166.621 300.906 166.477 295.989 166.316 290.347C166.152 284.707 165.969 278.344 165.807 271.4C165.731 267.928 165.614 264.315 165.496 260.574C165.389 256.833 165.278 252.965 165.166 248.987C165.052 245.012 164.937 240.926 164.818 236.751C164.763 234.665 164.707 232.555 164.65 230.423C164.6 228.292 164.514 226.144 164.445 223.974C164.157 215.303 163.859 206.34 163.554 197.238C163.196 188.134 162.876 178.886 162.454 169.639C162.094 160.385 161.73 151.13 161.373 142.021C161.253 137.458 161.131 132.93 161.015 128.458C160.959 126.222 160.908 124.001 160.854 121.792C160.828 119.588 160.8 117.399 160.775 115.229C160.727 110.886 160.679 106.621 160.632 102.441C160.622 101.397 160.613 100.359 160.605 99.324C160.605 98.289 160.609 97.259 160.609 96.231C160.614 94.186 160.622 92.166 160.626 90.174C160.629 89.178 160.633 88.19 160.636 87.205C160.653 86.223 160.666 85.249 160.683 84.279C160.716 82.343 160.75 80.436 160.783 78.562C160.854 74.814 161.016 71.191 161.12 67.716C161.204 65.98 161.285 64.278 161.366 62.616C161.455 60.952 161.511 59.329 161.639 57.746C161.863 54.587 162.056 51.589 162.335 48.778C162.82 43.152 163.443 38.269 164.081 34.279C164.7 30.283 165.424 27.198 166.03 25.142C166.33 24.114 166.601 23.343 166.806 22.836C167.016 22.329 167.152 22.088 167.152 22.088Z" fill="#002B03"/>
<path d="M169.317 21.342C169.317 21.342 169.599 22.451 170.025 24.571C170.129 25.099 170.262 25.689 170.387 26.342C170.503 26.995 170.629 27.711 170.768 28.484C171.029 30.033 171.393 31.799 171.661 33.805C171.95 35.811 172.27 38.029 172.62 40.445C172.809 41.651 172.938 42.915 173.099 44.224C173.254 45.534 173.415 46.892 173.581 48.294C174.314 53.896 174.828 60.255 175.461 67.186C175.533 68.051 175.626 68.928 175.688 69.814C175.747 70.7 175.806 71.593 175.867 72.497C175.99 74.303 176.114 76.147 176.239 78.017C176.361 79.892 176.487 81.795 176.613 83.732C176.725 85.666 176.89 87.628 176.967 89.622C177.139 93.609 177.316 97.707 177.496 101.891C177.584 103.989 177.672 106.104 177.762 108.241C177.8 109.318 177.857 110.366 177.883 111.48C177.902 112.558 177.919 113.641 177.937 114.728C178.006 119.079 178.077 123.499 178.15 127.974C178.186 130.213 178.222 132.464 178.259 134.73C178.296 136.991 178.328 139.267 178.303 141.554C178.259 150.702 178.217 159.993 178.174 169.287C178.045 178.573 177.846 187.853 177.688 196.991C177.646 199.277 177.604 201.551 177.565 203.815C177.522 206.079 177.441 208.332 177.383 210.567C177.258 215.043 177.131 219.465 177.009 223.815C176.881 228.164 176.757 232.439 176.637 236.627C176.489 240.813 176.344 244.905 176.203 248.891C175.919 256.861 175.633 264.395 175.346 271.351C175.058 278.301 174.756 284.675 174.489 290.324C174.212 295.97 173.971 300.895 173.769 304.948C173.578 309.004 173.385 312.186 173.263 314.356C173.14 316.527 173.075 317.687 173.075 317.687C173.075 317.687 173.157 313.045 173.3 304.926C173.459 296.806 173.685 285.207 173.956 271.289C174.226 257.373 174.54 241.137 174.877 223.742C175.039 215.047 175.229 206.06 175.351 196.93C175.484 187.8 175.619 178.527 175.753 169.25C175.824 159.981 175.898 150.713 175.966 141.589C176.001 139.31 175.97 137.034 175.949 134.771C175.933 132.508 175.916 130.254 175.901 128.017C175.87 123.54 175.839 119.117 175.806 114.767C175.801 113.679 175.792 112.596 175.785 111.517C175.771 110.474 175.724 109.379 175.695 108.323C175.632 106.189 175.571 104.078 175.509 101.986C175.394 97.804 175.279 93.716 175.167 89.735C175.026 85.756 174.79 81.893 174.631 78.149C174.544 76.277 174.46 74.439 174.375 72.633C174.334 71.729 174.292 70.834 174.252 69.948C174.21 69.062 174.136 68.19 174.082 67.322C173.845 63.857 173.62 60.538 173.405 57.38C173.232 54.214 172.939 51.23 172.689 48.424C172.566 47.017 172.445 45.658 172.329 44.345C172.208 43.034 172.115 41.764 171.963 40.555C171.685 38.132 171.429 35.907 171.199 33.9C171.139 33.396 171.082 32.907 171.028 32.43C170.962 31.958 170.894 31.499 170.831 31.054C170.708 30.163 170.593 29.329 170.485 28.549C170.38 27.772 170.279 27.05 170.19 26.391C170.091 25.734 169.984 25.141 169.897 24.607C169.557 22.468 169.317 21.342 169.317 21.342Z" fill="#002B03"/>
<path d="M170.714 21.342C170.714 21.342 171.37 22.218 172.441 24.012C173.511 25.804 174.994 28.513 176.626 32.132C178.254 35.749 180.028 40.278 181.735 45.625C183.449 50.967 185.064 57.145 186.449 63.991C187.122 67.421 187.736 71.014 188.279 74.756C188.409 75.693 188.539 76.637 188.672 77.589C188.793 78.563 188.913 79.497 189.021 80.481C189.23 82.441 189.421 84.419 189.562 86.429C190.139 94.47 190.393 102.959 190.512 111.736C190.61 120.512 190.554 129.579 190.426 138.788C190.266 147.995 190.017 157.343 189.713 166.686C189.418 176.032 189.003 185.371 188.59 194.561C188.184 203.752 187.698 212.791 187.202 221.536C186.95 225.909 186.7 230.208 186.457 234.414C186.186 238.623 185.923 242.736 185.666 246.74C185.147 254.753 184.619 262.321 184.099 269.306C183.838 272.796 183.584 276.143 183.346 279.326C183.088 282.506 182.84 285.522 182.612 288.357C182.131 294.024 181.711 298.966 181.365 303.035C181.017 307.104 180.695 310.298 180.483 312.474C180.262 314.65 180.144 315.811 180.144 315.811C180.144 315.811 180.412 311.148 180.879 302.988C181.101 298.908 181.371 293.955 181.682 288.271C181.977 282.587 182.311 276.176 182.674 269.18C183.029 262.187 183.414 254.607 183.822 246.593C184.211 238.577 184.619 230.125 185.043 221.382C185.432 212.636 185.832 203.6 186.243 194.418C186.642 185.236 186.97 175.903 187.31 166.573C187.647 157.243 187.919 147.913 188.114 138.726C188.33 129.54 188.47 120.497 188.455 111.752C188.458 103.012 188.35 94.555 187.895 86.582C187.79 84.589 187.648 82.621 187.486 80.707C187.405 79.75 187.301 78.769 187.203 77.839C187.09 76.893 186.976 75.953 186.866 75.023C186.39 71.305 185.847 67.725 185.241 64.309C184.016 57.483 182.58 51.299 181.003 45.938C179.441 40.572 177.791 36.01 176.258 32.356C174.736 28.692 173.362 25.918 172.35 24.086C171.342 22.249 170.714 21.342 170.714 21.342Z" fill="#002B03"/>
<path d="M177.15 23.575C177.15 23.575 178.065 24.043 179.633 25.233C181.193 26.426 183.435 28.321 185.897 31.247C188.366 34.149 191.087 38.05 193.542 43.029C194.771 45.513 195.945 48.253 196.997 51.237C198.038 54.23 198.944 57.463 199.717 60.891C201.263 67.736 202.116 75.453 202.311 83.51C202.544 91.621 202.493 100.109 202.3 108.905C202.096 117.698 201.818 126.775 201.413 135.992C201.017 145.207 200.547 154.56 200.053 163.916C199.517 173.265 198.955 182.611 198.368 191.809C197.792 201.006 197.14 210.051 196.518 218.805C195.903 227.558 195.243 236.012 194.616 244.028C193.995 252.044 193.364 259.622 192.773 266.612C192.192 273.606 191.615 280.01 191.095 285.686C190.575 291.362 190.122 296.311 189.746 300.383C189.375 304.459 189.042 307.656 188.83 309.838C188.612 312.019 188.494 313.182 188.494 313.182C188.494 313.182 189.653 294.496 191.39 266.471C192.269 252.461 193.296 236.116 194.394 218.606C194.925 209.85 195.478 200.801 196.038 191.609C196.595 182.414 197.128 173.072 197.636 163.729C198.156 154.389 198.656 145.044 199.078 135.846C199.484 126.646 199.9 117.592 200.166 108.831C200.42 100.078 200.606 91.581 200.498 83.599C200.465 81.607 200.391 79.588 200.317 77.675C200.259 76.71 200.202 75.752 200.143 74.802C200.093 73.848 199.977 72.913 199.902 71.981C199.547 68.256 199.057 64.669 198.358 61.292C197.679 57.909 196.843 54.72 195.905 51.749C194.959 48.781 193.885 46.047 192.751 43.556C190.483 38.564 187.912 34.608 185.555 31.636C183.195 28.66 181.073 26.628 179.56 25.365C178.046 24.094 177.15 23.575 177.15 23.575Z" fill="#002B03"/>
<path opacity="0.7" d="M211.311 81.212C210.885 53.001 200.912 25.412 175.042 21.733C161.065 19.746 143.319 25.27 136.082 38.049C129.799 49.144 127.44 63.647 126.853 76.258C124.669 123.078 140.308 300.535 140.308 300.535C140.308 300.535 143.383 318.342 165.583 318.833C196.324 319.509 196.362 299.245 196.362 299.245C196.362 299.245 212.014 128.093 211.311 81.212ZM185.105 242.617C185.105 242.617 185.077 258.301 161.281 257.78C144.096 257.4 141.716 243.614 141.716 243.614C141.716 243.614 129.61 106.252 131.301 70.012C131.755 60.247 133.582 49.021 138.447 40.432C144.051 30.539 157.786 26.264 168.604 27.805C188.63 30.653 196.348 52.006 196.677 73.843C197.223 110.134 185.105 242.617 185.105 242.617Z" fill="#03A10E"/>
<path d="M165.341 29.058C165.341 29.058 132.653 22.088 133.852 78.738C135.009 133.576 139.543 195.847 139.543 195.847C139.543 195.847 136.435 89.607 140.515 69.363C145.008 47.071 145.317 37.051 165.341 29.058Z" fill="#03A10E"/>
<path d="M211.311 81.212C210.885 53.001 200.912 25.412 175.042 21.733C173.693 21.541 172.31 21.42 170.903 21.369C198.881 27.515 201.238 76.615 201.238 76.615L190.456 282.883C184.464 304.11 157.185 300.22 157.185 300.22C143.967 297.468 139.718 285.659 138.36 277.683C139.536 291.792 140.307 300.537 140.307 300.537C140.307 300.537 143.382 318.344 165.582 318.835C196.323 319.511 196.361 299.247 196.361 299.247C196.361 299.247 212.014 128.093 211.311 81.212Z" fill="#03A10E"/>
</svg>
